<svg width="89" height="34" viewBox="0 0 89 34" fill="none" xmlns="http://www.w3.org/2000/svg">
<g clip-path="url(#clip0_3109_186)">
<path d="M87.5869 0.000177743H82.0363C80.6582 0.28061 80.3482 1.05422 79.9381 1.94386C79.7808 2.31133 72.3132 19.3355 70.9017 22.5508C69.4902 19.3307 62.0227 2.31133 61.8654 1.94386C61.46 1.05422 61.1501 0.28061 59.772 0.000177743H54.2214C53.1485 -0.0143274 52.581 0.860815 52.891 1.94386C53.2677 3.0946 66.1046 31.9791 66.1046 31.9791C66.9152 33.9808 69.2709 33.9808 69.2709 33.9808H70.6824H71.1354H72.5469C72.5469 33.9808 74.8978 33.9808 75.7132 31.9791C75.7132 31.9791 88.5453 3.0946 88.9268 1.94386C89.2272 0.860815 88.6598 -0.00949234 87.5869 0.000177743Z" fill="#EA638C"/>
<path d="M64.0781 32.0412C63.7014 30.8904 50.8645 2.0059 50.8645 2.0059C50.0538 0.00419617 47.6981 0.00419617 47.6981 0.00419617H46.2867H45.8336H44.4222C44.4222 0.00419617 42.0713 0.00419617 41.2559 2.0059C41.2559 2.0059 35.9675 13.9098 32.0812 22.7386C28.1948 13.9098 22.9065 2.01074 22.9065 2.01074C22.0959 0.00903109 19.7402 0.00903121 19.7402 0.00903121H18.3287H17.8757H16.4642C16.4642 0.00903121 14.1133 0.00903109 13.2979 2.01074C13.2979 2.01074 0.465778 30.8953 0.0842954 32.046C-0.22566 33.1291 0.341796 33.9994 1.41472 33.9897H6.9653C8.3434 33.7093 8.65336 32.9357 9.05868 32.046C9.22558 31.6785 16.6931 14.6544 18.1046 11.4391C19.5161 14.6592 26.9836 31.6785 27.141 32.046C27.4748 32.7761 27.7514 33.424 28.6049 33.7915C28.7527 33.8785 28.9244 33.9317 29.1199 33.9607C29.1628 33.9704 29.1962 33.9849 29.2391 33.9945H34.7897C34.8183 33.9945 34.8422 33.9897 34.8708 33.9849H34.928C34.9375 33.9849 34.9471 33.98 34.9614 33.9752C35.2236 33.951 35.4478 33.8785 35.6337 33.7528C36.4301 33.3853 36.7019 32.7519 37.0262 32.0412C37.1835 31.6737 44.651 14.6495 46.0625 11.4342C47.474 14.6544 54.9416 31.6737 55.0989 32.0412C55.5042 32.9308 55.8142 33.7044 57.1971 33.9849H62.7477C63.8206 33.9945 64.388 33.1194 64.0781 32.0412Z" fill="#EA638C"/>
</g>
<defs>
<clipPath id="clip0_3109_186">
<rect width="89" height="34" fill="white"/>
</clipPath>
</defs>
</svg>
